<svg width="24" height="24" viewBox="0 0 24 24" fill="none" xmlns="http://www.w3.org/2000/svg">
<path d="M19.4318 5.45186C18.0933 4.83772 16.658 4.38524 15.1573 4.12609C15.13 4.12109 15.1027 4.13358 15.0886 4.15858C14.904 4.4869 14.6996 4.91521 14.5564 5.25186C12.9423 5.01021 11.3365 5.01021 9.75545 5.25186C9.61224 4.90772 9.40034 4.4869 9.21492 4.15858C9.20084 4.13442 9.17354 4.12192 9.14621 4.12609C7.64634 4.38441 6.21103 4.83689 4.87174 5.45186C4.86014 5.45686 4.8502 5.4652 4.84361 5.47603C2.12114 9.54334 1.37534 13.5107 1.7412 17.4288C1.74286 17.448 1.75362 17.4663 1.76852 17.478C3.56473 18.7971 5.30466 19.5979 7.01229 20.1287C7.03962 20.137 7.06857 20.127 7.08597 20.1045C7.4899 19.5529 7.84998 18.9713 8.15871 18.3596C8.17693 18.3238 8.15954 18.2813 8.1223 18.2671C7.55116 18.0505 7.00732 17.7863 6.48418 17.4863C6.4428 17.4622 6.43949 17.403 6.47756 17.3747C6.58764 17.2922 6.69776 17.2063 6.80288 17.1197C6.8219 17.1038 6.8484 17.1005 6.87076 17.1105C10.3075 18.6796 14.0283 18.6796 17.4245 17.1105C17.4469 17.0997 17.4734 17.103 17.4932 17.1188C17.5984 17.2055 17.7084 17.2922 17.8194 17.3747C17.8574 17.403 17.8549 17.4622 17.8136 17.4863C17.2904 17.7921 16.7466 18.0505 16.1746 18.2663C16.1374 18.2805 16.1208 18.3238 16.139 18.3596C16.4544 18.9704 16.8145 19.5521 17.211 20.1037C17.2275 20.127 17.2573 20.137 17.2846 20.1287C19.0005 19.5979 20.7405 18.7971 22.5367 17.478C22.5524 17.4663 22.5623 17.4488 22.564 17.4297C23.0019 12.8999 21.8306 8.96504 19.4591 5.47685C19.4533 5.4652 19.4434 5.45686 19.4318 5.45186ZM8.67194 15.0431C7.63723 15.0431 6.78466 14.0932 6.78466 12.9265C6.78466 11.7599 7.6207 10.81 8.67194 10.81C9.73143 10.81 10.5758 11.7682 10.5592 12.9265C10.5592 14.0932 9.72315 15.0431 8.67194 15.0431ZM15.6498 15.0431C14.6151 15.0431 13.7626 14.0932 13.7626 12.9265C13.7626 11.7599 14.5986 10.81 15.6498 10.81C16.7093 10.81 17.5536 11.7682 17.5371 12.9265C17.5371 14.0932 16.7093 15.0431 15.6498 15.0431Z" fill="#465358"/>
</svg>
